<svg xmlns="http://www.w3.org/2000/svg" x="0px" y="0px" width="100" height="100" viewBox="0,0,256,256">
<g fill="#ffffff" fill-rule="nonzero" stroke="none" stroke-width="1" stroke-linecap="butt" stroke-linejoin="miter" stroke-miterlimit="10" stroke-dasharray="" stroke-dashoffset="0" font-family="none" font-weight="none" font-size="none" text-anchor="none" style="mix-blend-mode: normal"><g transform="scale(4,4)"><path d="M32,3c-16.016,0 -29,12.984 -29,29c0,16.016 12.984,29 29,29c16.016,0 29,-12.984 29,-29c0,-16.016 -12.984,-29 -29,-29zM32,5c14.912,0 27,12.088 27,27c0,14.912 -12.088,27 -27,27c-14.912,0 -27,-12.088 -27,-27c0,-14.912 12.088,-27 27,-27zM31.29688,17.00195c-3.728,0 -9.25391,2.36644 -9.25391,7.89844c0,6.144 5.97039,7.58722 9.77539,8.32422c3.805,0.737 6.9082,1.41514 6.9082,4.86914c0,3.454 -3.05045,4.51367 -6.43945,4.51367c-7.453,0 -6.67383,-6.86328 -6.67383,-6.86328c0,0 -2.16228,0.33903 -4.61328,0.70703c1.146,6.229 4.27545,9.54883 11.31445,9.54883c7.794,0 10.68555,-4.19536 10.68555,-8.44336c0,-4.248 -2.92006,-6.65402 -8.91406,-8.04102c-5.995,-1.386 -7.91602,-2.44169 -7.91602,-4.67969c0,-1.832 1.42373,-4.25977 5.17773,-4.25977c7.379,0 6.70898,6.06836 6.70898,6.06836l4.42969,-0.63086c0,-4.146 -2.56645,-9.01272 -11.18945,-9.01172zM23.20898,49.96875c-0.35297,-0.04355 -0.71334,0.12222 -0.90234,0.44922l-0.91406,1.58203c-0.252,0.436 -0.10202,0.99409 0.33398,1.24609c0.143,0.083 0.30103,0.12305 0.45703,0.12305c0.316,0 0.62202,-0.16303 0.79102,-0.45703l0.91406,-1.58203c0.252,-0.435 0.10106,-0.99309 -0.33594,-1.24609c-0.109,-0.06275 -0.22609,-0.10072 -0.34375,-0.11523zM40.78711,49.96875c-0.11748,0.01464 -0.2333,0.05419 -0.3418,0.11719c-0.437,0.252 -0.58698,0.81009 -0.33398,1.24609l0.91211,1.58008c0.17,0.293 0.47697,0.45703 0.79297,0.45703c0.155,0 0.31108,-0.03809 0.45508,-0.12109c0.437,-0.252 0.58698,-0.81009 0.33398,-1.24609l-0.91406,-1.58203c-0.18975,-0.32775 -0.55184,-0.49509 -0.9043,-0.45117zM36.73242,51.74805c-0.11755,-0.01625 -0.24128,-0.00956 -0.36328,0.02344c-0.487,0.131 -0.77453,0.63114 -0.64453,1.11914l0.47266,1.76367c0.109,0.408 0.47786,0.67773 0.88086,0.67773c0.079,0 0.15733,-0.00925 0.23633,-0.03125c0.487,-0.131 0.77649,-0.63114 0.64648,-1.11914l-0.47266,-1.76367c-0.09825,-0.366 -0.40322,-0.62117 -0.75586,-0.66992zM27.26563,51.75c-0.3525,0.04889 -0.65956,0.30392 -0.75781,0.66992l-0.47266,1.76367c-0.131,0.488 0.15949,0.98814 0.64648,1.11914c0.079,0.021 0.15833,0.03125 0.23633,0.03125c0.403,0 0.77186,-0.26973 0.88086,-0.67773l0.47266,-1.76367c0.131,-0.49 -0.15753,-0.99014 -0.64453,-1.11914c-0.12175,-0.03275 -0.24383,-0.03974 -0.36133,-0.02344zM31.99805,52.34766c-0.505,0 -0.91211,0.41006 -0.91211,0.91406v1.82617c0,0.504 0.40711,0.91211 0.91211,0.91211c0.505,0 0.91406,-0.40811 0.91406,-0.91211v-1.82617c0,-0.504 -0.40906,-0.91406 -0.91406,-0.91406z"></path></g></g>
</svg>